<?xml version="1.0" encoding="UTF-8" standalone="no"?>
<!-- Created with Inkscape (http://www.inkscape.org/) -->

<svg
   width="87.035553mm"
   height="77.24408mm"
   viewBox="0 0 87.035552 77.244079"
   version="1.1"
   id="svg1"
   xml:space="preserve"
   sodipodi:docname="flyql.svg"
   inkscape:version="1.4.3 (0d15f75, 2025-12-25)"
   xmlns:inkscape="http://www.inkscape.org/namespaces/inkscape"
   xmlns:sodipodi="http://sodipodi.sourceforge.net/DTD/sodipodi-0.dtd"
   xmlns="http://www.w3.org/2000/svg"
   xmlns:svg="http://www.w3.org/2000/svg"><sodipodi:namedview
     id="namedview1"
     pagecolor="#ffffff"
     bordercolor="#000000"
     borderopacity="0.25"
     inkscape:showpageshadow="2"
     inkscape:pageopacity="0.0"
     inkscape:pagecheckerboard="0"
     inkscape:deskcolor="#d1d1d1"
     inkscape:document-units="mm"
     inkscape:zoom="0.5"
     inkscape:cx="383"
     inkscape:cy="193"
     inkscape:window-width="1728"
     inkscape:window-height="1056"
     inkscape:window-x="0"
     inkscape:window-y="33"
     inkscape:window-maximized="1"
     inkscape:current-layer="layer1"
     inkscape:clip-to-page="false" /><defs
     id="defs1" /><g
     inkscape:label="Layer 1"
     inkscape:groupmode="layer"
     id="layer1"
     transform="translate(-60.791304,-72.873793)"><path
       id="path26"
       style="opacity:0.98961;fill:#0079ff;fill-opacity:1;fill-rule:evenodd;stroke:#1cf5e8;stroke-width:0;stroke-linecap:round;stroke-linejoin:miter;stroke-dasharray:none;stroke-opacity:1"
       d="m 147.82686,72.873793 -39.98204,0.0354 a 19.991346,20.523637 0 0 0 0,0.0138 20.523637,19.991344 89.967424 0 0 -0.14674,-0.0111 20.523637,19.991344 89.967424 0 0 -19.991015,20.50447 l 39.982035,0.003 a 20.523637,19.991344 89.967424 0 0 -0.003,-0.0326 19.991346,20.523637 0 0 0 0.16498,0.0111 19.991346,20.523637 0 0 0 19.97531,-20.52361 z" /><path
       id="path26-4"
       style="opacity:0.98961;fill:#9196eb;fill-opacity:1;fill-rule:evenodd;stroke:#000000;stroke-width:0;stroke-linecap:round;stroke-linejoin:miter;stroke-dasharray:none;stroke-opacity:1"
       d="m 60.791304,150.11728 0.03606,-42.65605 a 20.897349,21.328386 0 0 1 0.01408,0 21.328388,20.897349 89.958095 0 1 -0.01129,-0.15695 21.328388,20.897349 89.958095 0 1 20.877831,-21.328057 l 0.003,42.656047 a 21.328388,20.897349 89.958095 0 1 -0.0332,-0.002 20.897349,21.328386 0 0 1 0.0113,0.17631 20.897349,21.328386 0 0 1 -20.897302,21.31129 z" /><path
       id="path27"
       style="opacity:0.98961;fill:#b2c0ce;fill-opacity:1;fill-rule:evenodd;stroke:#000000;stroke-width:0;stroke-linecap:round;stroke-linejoin:miter;stroke-dasharray:none;stroke-opacity:1"
       d="m 133.47001,101.84374 -31.01879,0.0369 a 15.508983,20.396823 0 0 0 0,0.0102 20.465702,15.509002 89.927803 0 0 -0.2879,0 20.465702,15.509002 89.927803 0 0 -15.418905,20.55146 l 31.018785,-0.21101 a 20.465702,15.509002 89.927803 0 0 0,-0.006 15.508983,20.396823 0 0 0 0.2111,0.0171 15.508983,20.396823 0 0 0 15.49569,-20.39738 z" /><path
       id="path65-6"
       style="opacity:0.98961;fill:#f44562;fill-opacity:0.992157;fill-rule:nonzero;stroke:#00fff0;stroke-width:0;stroke-linecap:round;stroke-linejoin:miter;stroke-dasharray:none;stroke-opacity:1"
       inkscape:transform-center-x="-12.057987"
       inkscape:transform-center-y="-0.65485219"
       d="m 113.05416,129.44132 a 13.668461,20.579754 0 0 1 -13.325463,20.5729 v 0.0537 l -14.663092,0.0191 a 13.668461,20.579754 0 0 1 13.32546,-20.57291 v -0.0532 z" /></g></svg>
